<svg width="29" height="29" viewBox="0 0 29 29" fill="none" xmlns="http://www.w3.org/2000/svg">
<path opacity="0.4" d="M25.7953 9.15728V17.7753C25.4553 17.6111 25.0801 17.4939 24.658 17.4235L24.2945 17.3649L23.9896 16.7317C23.3447 15.4185 22.2895 14.6564 21.1053 14.6564C19.921 14.6564 18.8658 15.4185 18.2209 16.7317L17.9043 17.3649L17.5525 17.4235C16.1572 17.658 15.1489 18.4319 14.7854 19.534C14.4336 20.6479 14.7971 21.8673 15.7938 22.8757L16.1572 23.2392L16.1221 23.3799C15.8876 24.4234 15.9814 25.2207 16.2042 25.7953H9.15734C4.88938 25.7953 2.34503 23.2509 2.34503 18.9829V9.15728C2.34503 4.88933 4.88938 2.34497 9.15734 2.34497H18.983C23.251 2.34497 25.7953 4.88933 25.7953 9.15728Z" fill="#FB3F6C"/>
<path d="M22.4184 17.5174L22.7937 18.2796C22.9813 18.6548 23.462 19.0065 23.8606 19.0769L24.3648 19.159C25.9008 19.4169 26.2526 20.5425 25.1621 21.6447L24.6931 22.1137C24.3765 22.4303 24.2124 23.04 24.3062 23.4855L24.3648 23.7669C24.7869 25.6195 23.802 26.3347 22.1957 25.3616L21.8557 25.1505C21.4453 24.9043 20.7652 24.9043 20.3548 25.1505L20.0148 25.3616C18.3967 26.3347 17.4235 25.6195 17.8456 23.7669L17.9043 23.4855C17.9981 23.0517 17.8339 22.4303 17.5173 22.1137L17.0483 21.6447C15.9579 20.5308 16.3096 19.4169 17.8456 19.159L18.3498 19.0769C18.7602 19.0065 19.2292 18.6548 19.4168 18.2796L19.792 17.5174C20.519 16.0518 21.6915 16.0518 22.4184 17.5174Z" fill="#FB3F6C"/>
<path fill-rule="evenodd" clip-rule="evenodd" d="M18.9121 9.28304C19.296 9.58059 19.3659 10.133 19.0684 10.5168L16.3546 14.0176C15.6571 14.8997 14.3711 15.0606 13.4739 14.3673L13.4678 14.3626L11.3261 12.6773C11.1938 12.5768 11.0092 12.6018 10.9087 12.7314C10.9087 12.7316 10.9088 12.7313 10.9087 12.7314L8.11872 16.3538C7.82236 16.7386 7.27019 16.8102 6.88542 16.5139C6.50066 16.2175 6.42899 15.6653 6.72535 15.2806L9.51678 11.6564C10.2131 10.7552 11.5043 10.5924 12.4036 11.2872L12.4097 11.2919L14.5514 12.9772C14.6851 13.0788 14.8735 13.0526 14.9732 12.9289L17.6783 9.4393C17.9759 9.05545 18.5283 8.98549 18.9121 9.28304Z" fill="#FB3F6C"/>
</svg>
