<svg width="29" height="29" viewBox="0 0 29 29" fill="none" xmlns="http://www.w3.org/2000/svg">
<path opacity="0.4" d="M22.2778 12.0534V20.4369C22.2426 23.7785 21.328 24.6228 17.8456 24.6228H6.77717C3.23618 24.6228 2.34503 23.7434 2.34503 20.2493V12.0534C2.34503 8.88762 3.08372 7.86753 5.86257 7.70338C6.14398 7.69166 6.44886 7.67993 6.77717 7.67993H17.8456C21.3866 7.67993 22.2778 8.55932 22.2778 12.0534Z" fill="#80CC28"/>
<path d="M25.7953 7.89106V16.0869C25.7953 19.2527 25.0566 20.2728 22.2778 20.437V12.0535C22.2778 8.55939 21.3866 7.68 17.8456 7.68H6.77717C6.44887 7.68 6.14398 7.69173 5.86258 7.70345C5.89775 4.36179 6.81235 3.51758 10.2947 3.51758H21.3632C24.9042 3.51758 25.7953 4.39696 25.7953 7.89106Z" fill="#80CC28"/>
<path d="M8.1607 21.7619H6.14394C5.66321 21.7619 5.26456 21.3633 5.26456 20.8826C5.26456 20.4018 5.66321 20.0032 6.14394 20.0032H8.1607C8.64143 20.0032 9.04009 20.4018 9.04009 20.8826C9.04009 21.3633 8.65316 21.7619 8.1607 21.7619Z" fill="#80CC28"/>
<path d="M14.7151 21.7619H10.6816C10.2009 21.7619 9.80222 21.3633 9.80222 20.8826C9.80222 20.4018 10.2009 20.0032 10.6816 20.0032H14.7151C15.1958 20.0032 15.5944 20.4018 15.5944 20.8826C15.5944 21.3633 15.2075 21.7619 14.7151 21.7619Z" fill="#80CC28"/>
<path d="M22.2778 13.906H2.34503V15.6648H22.2778V13.906Z" fill="#80CC28"/>
</svg>
