<svg width="149" height="14" viewBox="0 0 149 14" fill="none" xmlns="http://www.w3.org/2000/svg">
<path d="M6.52996 0.146362C7.2982 0.146362 7.98717 0.231721 8.59687 0.402439C9.21877 0.560963 9.74312 0.798749 10.1699 1.1158C10.5967 1.42065 10.926 1.79867 11.1576 2.24985C11.3893 2.70104 11.5052 3.20709 11.5052 3.76802C11.5052 4.68258 11.3284 5.45691 10.9747 6.09101C10.6211 6.7251 10.1333 7.23726 9.51143 7.62747C8.88953 8.01768 8.15788 8.29815 7.31649 8.46887C6.47509 8.63958 5.56053 8.72494 4.5728 8.72494H3.85945L2.83514 12.9685H-4.08554e-08L2.98147 0.475604C3.63995 0.353662 4.26185 0.268303 4.84717 0.219527C5.44469 0.17075 6.00562 0.146362 6.52996 0.146362ZM6.29218 2.54251C6.08488 2.54251 5.90806 2.54861 5.76173 2.5608C5.6154 2.573 5.46907 2.58519 5.32274 2.59738L4.44477 6.32879H5.15812C5.67028 6.32879 6.13366 6.29221 6.54826 6.21905C6.97505 6.13369 7.33478 5.99955 7.62744 5.81664C7.93229 5.63373 8.16398 5.40204 8.3225 5.12157C8.49322 4.82891 8.57858 4.47528 8.57858 4.06068C8.57858 3.51195 8.37738 3.12173 7.97497 2.89004C7.58476 2.65836 7.02383 2.54251 6.29218 2.54251ZM11.6821 12.9685L14.7184 0.292692H23.0043L22.419 2.63397H16.9865L16.4012 5.19474H21.1935L20.6265 7.49943H15.8342L15.1025 10.6089H20.9557L20.3704 12.9685H11.6821ZM26.8775 13.1331C26.1459 13.1331 25.3959 13.1026 24.6277 13.0417C23.8595 12.9807 23.1644 12.8831 22.5425 12.749L25.4691 0.493895C26.1642 0.359759 26.8897 0.268303 27.6457 0.219527C28.414 0.17075 29.1151 0.146362 29.7492 0.146362C30.4809 0.146362 31.1089 0.225624 31.6332 0.384148C32.1698 0.530477 32.6027 0.73168 32.9319 0.987758C33.2733 1.24384 33.5233 1.54869 33.6818 1.90232C33.8526 2.24375 33.9379 2.60958 33.9379 2.99979C33.9379 3.26806 33.9074 3.54853 33.8465 3.84119C33.7977 4.13385 33.6879 4.42651 33.5172 4.71917C33.3587 4.99963 33.1331 5.2679 32.8405 5.52398C32.56 5.78006 32.1881 6.01175 31.7247 6.21905C32.2734 6.46293 32.6758 6.79827 32.9319 7.22506C33.188 7.63966 33.316 8.10304 33.316 8.6152C33.316 9.20051 33.2002 9.76754 32.9685 10.3163C32.7368 10.8528 32.3649 11.3345 31.8527 11.7613C31.3406 12.1759 30.676 12.5112 29.859 12.7673C29.042 13.0112 28.0482 13.1331 26.8775 13.1331ZM26.6214 7.42627L25.8349 10.7187C26.03 10.7553 26.2739 10.7858 26.5666 10.8101C26.8714 10.8223 27.1519 10.8284 27.408 10.8284C27.7738 10.8284 28.1335 10.804 28.4871 10.7553C28.853 10.6943 29.1761 10.5906 29.4566 10.4443C29.7492 10.298 29.987 10.0968 30.1699 9.84071C30.3528 9.58463 30.4443 9.25539 30.4443 8.85298C30.4443 8.68226 30.4077 8.51155 30.3346 8.34083C30.2736 8.17011 30.1699 8.01768 30.0236 7.88355C29.8773 7.74941 29.6822 7.63966 29.4383 7.55431C29.2066 7.46895 28.9261 7.42627 28.5969 7.42627H26.6214ZM27.1519 5.28619H28.9444C29.6761 5.28619 30.2187 5.12767 30.5723 4.81062C30.9382 4.49357 31.1211 4.11556 31.1211 3.67657C31.1211 3.44488 31.0662 3.24977 30.9565 3.09125C30.8589 2.92053 30.7248 2.78639 30.554 2.68884C30.3833 2.59129 30.1882 2.52422 29.9687 2.48764C29.7492 2.43886 29.5236 2.41447 29.292 2.41447C29.0359 2.41447 28.7615 2.42667 28.4689 2.45105C28.1762 2.46325 27.9567 2.48154 27.8104 2.50593L27.1519 5.28619ZM37.6182 0.292692H40.4716L37.417 12.9685H34.5818L37.6182 0.292692ZM43.8285 10.8467C44.1089 10.8467 44.3894 10.8284 44.6699 10.7919C44.9503 10.7431 45.2003 10.6638 45.4198 10.5541C45.6393 10.4443 45.8161 10.2919 45.9503 10.0968C46.0966 9.88948 46.1697 9.62731 46.1697 9.31026C46.1697 9.06638 46.1027 8.85908 45.9685 8.68836C45.8344 8.50545 45.6637 8.34083 45.4564 8.1945C45.2491 8.04817 45.0174 7.91403 44.7613 7.79209C44.5052 7.67015 44.2492 7.53601 43.9931 7.38968C43.6639 7.19458 43.3529 6.98728 43.0602 6.76778C42.7676 6.54829 42.5176 6.30441 42.3103 6.03613C42.103 5.75567 41.9384 5.45082 41.8164 5.12157C41.6945 4.78014 41.6335 4.38992 41.6335 3.95093C41.6335 3.39 41.7372 2.87175 41.9445 2.39618C42.164 1.90842 42.481 1.48772 42.8956 1.13409C43.3224 0.780457 43.8529 0.506089 44.487 0.310983C45.1211 0.103682 45.8649 3.15031e-05 46.7185 3.15031e-05C47.1087 3.15031e-05 47.4867 0.0366142 47.8525 0.10978C48.2184 0.17075 48.5598 0.250012 48.8768 0.347565C49.1939 0.445118 49.4805 0.560963 49.7365 0.695099C50.0048 0.81704 50.2304 0.938981 50.4133 1.06092L49.2244 3.16441C48.9195 2.93272 48.5476 2.73762 48.1086 2.57909C47.6696 2.42057 47.1941 2.34131 46.6819 2.34131C46.4014 2.34131 46.1332 2.3657 45.8771 2.41447C45.621 2.46325 45.3954 2.54861 45.2003 2.67055C45.0052 2.7803 44.8467 2.92663 44.7247 3.10954C44.615 3.29245 44.5601 3.51804 44.5601 3.78631C44.5601 4.0302 44.6028 4.2375 44.6882 4.40822C44.7857 4.56674 44.9077 4.70697 45.054 4.82891C45.2003 4.95085 45.371 5.0606 45.5661 5.15816C45.7612 5.25571 45.9685 5.35936 46.188 5.46911C46.5661 5.66421 46.9319 5.87151 47.2855 6.09101C47.6391 6.3105 47.9501 6.56658 48.2184 6.85924C48.4866 7.1397 48.7 7.46285 48.8586 7.82867C49.0171 8.1945 49.0963 8.62739 49.0963 9.12735C49.0963 9.82242 48.9683 10.426 48.7122 10.9382C48.4562 11.4503 48.0964 11.8771 47.633 12.2186C47.1697 12.56 46.6148 12.81 45.9685 12.9685C45.3344 13.1392 44.6272 13.2246 43.8468 13.2246C43.3346 13.2246 42.8529 13.1819 42.4018 13.0965C41.9628 13.0112 41.5604 12.9136 41.1945 12.8039C40.8409 12.6819 40.53 12.5539 40.2617 12.4198C40.0056 12.2856 39.7983 12.1637 39.6398 12.0539L40.847 9.87729C40.9933 9.97484 41.1701 10.0785 41.3774 10.1882C41.5847 10.298 41.8164 10.4016 42.0725 10.4992C42.3408 10.5967 42.6213 10.6821 42.9139 10.7553C43.2066 10.8162 43.5114 10.8467 43.8285 10.8467ZM59.0576 12.9685C58.5455 11.5296 57.9723 10.0907 57.3383 8.65178C56.7164 7.21287 56.0396 5.85322 55.3079 4.57284L53.2959 12.9685H50.4973L53.5337 0.292692H55.7103C55.9908 0.719486 56.2896 1.22554 56.6066 1.81086C56.9358 2.38399 57.2712 3.00589 57.6126 3.67657C57.9541 4.34724 58.2955 5.04841 58.6369 5.78006C58.9784 6.49951 59.3015 7.21287 59.6064 7.92013L61.4172 0.292692H64.2523L61.1977 12.9685H59.0576ZM67.1092 0.292692H69.9626L66.908 12.9685H64.0728L67.1092 0.292692ZM73.3195 10.8467C73.6 10.8467 73.8804 10.8284 74.1609 10.7919C74.4414 10.7431 74.6913 10.6638 74.9108 10.5541C75.1303 10.4443 75.3071 10.2919 75.4413 10.0968C75.5876 9.88948 75.6608 9.62731 75.6608 9.31026C75.6608 9.06638 75.5937 8.85908 75.4596 8.68836C75.3254 8.50545 75.1547 8.34083 74.9474 8.1945C74.7401 8.04817 74.5084 7.91403 74.2523 7.79209C73.9963 7.67015 73.7402 7.53601 73.4841 7.38968C73.1549 7.19458 72.8439 6.98728 72.5513 6.76778C72.2586 6.54829 72.0086 6.30441 71.8013 6.03613C71.594 5.75567 71.4294 5.45082 71.3075 5.12157C71.1855 4.78014 71.1245 4.38992 71.1245 3.95093C71.1245 3.39 71.2282 2.87175 71.4355 2.39618C71.655 1.90842 71.972 1.48772 72.3866 1.13409C72.8134 0.780457 73.3439 0.506089 73.978 0.310983C74.6121 0.103682 75.3559 3.15031e-05 76.2095 3.15031e-05C76.5997 3.15031e-05 76.9777 0.0366142 77.3436 0.10978C77.7094 0.17075 78.0508 0.250012 78.3679 0.347565C78.6849 0.445118 78.9715 0.560963 79.2276 0.695099C79.4958 0.81704 79.7214 0.938981 79.9043 1.06092L78.7154 3.16441C78.4105 2.93272 78.0386 2.73762 77.5996 2.57909C77.1606 2.42057 76.6851 2.34131 76.1729 2.34131C75.8925 2.34131 75.6242 2.3657 75.3681 2.41447C75.112 2.46325 74.8864 2.54861 74.6913 2.67055C74.4962 2.7803 74.3377 2.92663 74.2158 3.10954C74.106 3.29245 74.0511 3.51804 74.0511 3.78631C74.0511 4.0302 74.0938 4.2375 74.1792 4.40822C74.2767 4.56674 74.3987 4.70697 74.545 4.82891C74.6913 4.95085 74.8621 5.0606 75.0572 5.15816C75.2523 5.25571 75.4596 5.35936 75.6791 5.46911C76.0571 5.66421 76.4229 5.87151 76.7765 6.09101C77.1302 6.3105 77.4411 6.56658 77.7094 6.85924C77.9777 7.1397 78.1911 7.46285 78.3496 7.82867C78.5081 8.1945 78.5874 8.62739 78.5874 9.12735C78.5874 9.82242 78.4593 10.426 78.2032 10.9382C77.9472 11.4503 77.5874 11.8771 77.1241 12.2186C76.6607 12.56 76.1059 12.81 75.4596 12.9685C74.8255 13.1392 74.1182 13.2246 73.3378 13.2246C72.8256 13.2246 72.344 13.1819 71.8928 13.0965C71.4538 13.0112 71.0514 12.9136 70.6856 12.8039C70.3319 12.6819 70.021 12.5539 69.7527 12.4198C69.4966 12.2856 69.2893 12.1637 69.1308 12.0539L70.338 9.87729C70.4844 9.97484 70.6612 10.0785 70.8685 10.1882C71.0758 10.298 71.3075 10.4016 71.5635 10.4992C71.8318 10.5967 72.1123 10.6821 72.4049 10.7553C72.6976 10.8162 73.0024 10.8467 73.3195 10.8467ZM147.045 9.84071C147.472 9.84071 147.825 9.96265 148.106 10.2065C148.399 10.4382 148.545 10.8101 148.545 11.3223C148.545 11.6028 148.49 11.8588 148.38 12.0905C148.283 12.3222 148.149 12.5234 147.978 12.6941C147.807 12.8527 147.612 12.9746 147.392 13.06C147.173 13.1575 146.947 13.2063 146.716 13.2063C146.289 13.2063 145.929 13.0904 145.637 12.8588C145.356 12.6149 145.216 12.2369 145.216 11.7247C145.216 11.4442 145.265 11.1882 145.362 10.9565C145.472 10.7248 145.612 10.5297 145.783 10.3712C145.954 10.2004 146.149 10.0724 146.368 9.98704C146.588 9.88948 146.813 9.84071 147.045 9.84071Z" fill="#FB3F6C"/>
<path d="M95.2292 8.35912C94.8146 10.0785 94.1378 11.3223 93.1989 12.0905C92.2721 12.8466 91.0405 13.2246 89.5041 13.2246C88.7115 13.2246 88.0408 13.1331 87.492 12.9502C86.9555 12.7551 86.5165 12.4929 86.1751 12.1637C85.8336 11.8223 85.5837 11.4198 85.4251 10.9565C85.2788 10.4809 85.2056 9.96875 85.2056 9.42001C85.2056 8.78591 85.2971 8.10914 85.48 7.38968L87.1811 0.292692H90.0345L88.242 7.79209C88.12 8.23108 88.0591 8.67617 88.0591 9.12735C88.0591 9.37123 88.0835 9.59073 88.1322 9.78583C88.1932 9.98094 88.2908 10.1517 88.4249 10.298C88.5712 10.4443 88.7602 10.5602 88.9919 10.6455C89.2358 10.7187 89.5346 10.7553 89.8882 10.7553C90.6198 10.7553 91.1747 10.5297 91.5527 10.0785C91.9307 9.61512 92.2234 8.96273 92.4307 8.12133L94.2964 0.292692H97.1498L95.2292 8.35912ZM105.904 10.5541L105.319 12.9685H96.8684L99.9048 0.292692H102.758L100.289 10.5541H105.904ZM117.682 8.35912C117.268 10.0785 116.591 11.3223 115.652 12.0905C114.725 12.8466 113.494 13.2246 111.957 13.2246C111.165 13.2246 110.494 13.1331 109.945 12.9502C109.409 12.7551 108.97 12.4929 108.628 12.1637C108.287 11.8223 108.037 11.4198 107.878 10.9565C107.732 10.4809 107.659 9.96875 107.659 9.42001C107.659 8.78591 107.75 8.10914 107.933 7.38968L109.634 0.292692H112.488L110.695 7.79209C110.573 8.23108 110.512 8.67617 110.512 9.12735C110.512 9.37123 110.537 9.59073 110.585 9.78583C110.646 9.98094 110.744 10.1517 110.878 10.298C111.024 10.4443 111.213 10.5602 111.445 10.6455C111.689 10.7187 111.988 10.7553 112.341 10.7553C113.073 10.7553 113.628 10.5297 114.006 10.0785C114.384 9.61512 114.677 8.96273 114.884 8.12133L116.75 0.292692H119.603L117.682 8.35912ZM127.882 12.9685C127.37 11.5296 126.797 10.0907 126.163 8.65178C125.541 7.21287 124.864 5.85322 124.132 4.57284L122.12 12.9685H119.322L122.358 0.292692H124.535C124.815 0.719486 125.114 1.22554 125.431 1.81086C125.76 2.38399 126.095 3.00589 126.437 3.67657C126.778 4.34724 127.12 5.04841 127.461 5.78006C127.803 6.49951 128.126 7.21287 128.431 7.92013L130.241 0.292692H133.077L130.022 12.9685H127.882ZM139.372 10.7736C139.616 10.7736 139.836 10.7675 140.031 10.7553C140.226 10.7309 140.403 10.7065 140.561 10.6821L141.622 6.27392H144.475L142.939 12.621C142.598 12.7551 142.104 12.8831 141.457 13.0051C140.811 13.1392 139.988 13.2063 138.988 13.2063C138.135 13.2063 137.378 13.0844 136.72 12.8405C136.074 12.5844 135.531 12.2247 135.092 11.7613C134.653 11.2979 134.324 10.737 134.104 10.0785C133.885 9.42001 133.775 8.67617 133.775 7.84696C133.775 6.89582 133.94 5.95077 134.269 5.01183C134.61 4.07288 135.11 3.23758 135.769 2.50593C136.427 1.76209 137.244 1.15848 138.22 0.695099C139.195 0.231721 140.317 3.15031e-05 141.585 3.15031e-05C142.171 3.15031e-05 142.787 0.0853905 143.433 0.256109C144.091 0.426827 144.683 0.682904 145.207 1.02434L144.183 3.23758C143.756 2.96931 143.299 2.7681 142.811 2.63397C142.335 2.49983 141.866 2.43276 141.403 2.43276C140.659 2.43276 139.994 2.573 139.409 2.85346C138.836 3.13393 138.348 3.51804 137.946 4.00581C137.543 4.48138 137.238 5.03621 137.031 5.67031C136.824 6.30441 136.72 6.97508 136.72 7.68234C136.72 8.75543 136.939 9.54195 137.378 10.0419C137.83 10.5297 138.494 10.7736 139.372 10.7736Z" fill="black"/>
</svg>
