<svg width="29" height="29" viewBox="0 0 29 29" fill="none" xmlns="http://www.w3.org/2000/svg">
<path opacity="0.4" d="M25.0566 13.3549V20.3783C25.0566 23.6144 22.4302 26.2408 19.1941 26.2408H8.94628C5.71014 26.2408 3.08371 23.6144 3.08371 20.3783V13.437C3.97482 14.3985 5.24114 14.9495 6.61298 14.9495C8.09034 14.9495 9.50909 14.2109 10.4002 13.0266C11.1975 14.2109 12.5576 14.9495 14.0702 14.9495C15.571 14.9495 16.9076 14.246 17.7167 13.0735C18.6195 14.2343 20.0148 14.9495 21.4687 14.9495C22.8875 14.9495 24.1772 14.375 25.0566 13.3549Z" fill="#593FFB"/>
<path d="M17.576 1.46558H10.5409L9.67325 10.0953C9.60289 10.8926 9.72015 11.643 10.0133 12.3231C10.6933 13.9177 12.288 14.9495 14.0702 14.9495C15.8758 14.9495 17.4353 13.9411 18.1388 12.3348C18.3498 11.8306 18.4788 11.2443 18.4906 10.6464V10.4236L17.576 1.46558Z" fill="#593FFB"/>
<path opacity="0.6" d="M26.2174 9.69662L25.8774 6.44876C25.3849 2.90777 23.7786 1.46558 20.3431 1.46558H15.8407L16.7083 10.2594C16.7201 10.3767 16.7318 10.5057 16.7318 10.7284C16.8021 11.3381 16.9897 11.901 17.2711 12.4051C18.1153 13.9528 19.7569 14.9495 21.4687 14.9495C23.0282 14.9495 24.4352 14.2577 25.3146 13.0383C26.0181 12.1003 26.3347 10.916 26.2174 9.69662Z" fill="#593FFB"/>
<path opacity="0.6" d="M7.72687 1.46558C4.27968 1.46558 2.68506 2.90777 2.18088 6.48394L1.8643 9.70835C1.74705 10.9629 2.08708 12.1824 2.82576 13.1321C3.71687 14.2929 5.08872 14.9495 6.61298 14.9495C8.32485 14.9495 9.96638 13.9529 10.7989 12.4286C11.1037 11.901 11.303 11.2912 11.3617 10.6581L12.2762 1.4773H7.72687V1.46558Z" fill="#593FFB"/>
<path d="M13.308 19.534C11.8189 19.6864 10.6933 20.9527 10.6933 22.4536V26.2408H17.4353V22.8639C17.447 20.4134 16.0048 19.2526 13.308 19.534Z" fill="#593FFB"/>
</svg>
