<svg width="119" height="34" viewBox="0 0 119 34" fill="none" xmlns="http://www.w3.org/2000/svg">
<path fill-rule="evenodd" clip-rule="evenodd" d="M5.51868 5.52637H16.4241L16.4233 16.3327H5.51868V5.52637Z" fill="#F1511B"/>
<path fill-rule="evenodd" clip-rule="evenodd" d="M17.5376 5.52637H28.4431C28.4431 9.12847 28.4437 12.7306 28.4425 16.3327C24.8079 16.3321 21.1728 16.3327 17.5383 16.3327C17.537 12.7306 17.5376 9.12847 17.5376 5.52637Z" fill="#80CC28"/>
<path fill-rule="evenodd" clip-rule="evenodd" d="M103.861 9.64383C104.866 8.99551 106.165 8.93494 107.298 9.2439C107.308 9.91129 107.3 10.5791 107.303 11.2467C106.764 11.0119 106.131 10.8587 105.565 11.0891C105.115 11.2658 104.848 11.7227 104.778 12.1795C104.694 12.759 104.748 13.3463 104.734 13.9293C105.884 13.9318 107.034 13.9299 108.184 13.9305C108.193 13.1906 108.175 12.4501 108.194 11.7101C108.976 11.4898 109.75 11.2423 110.528 11.0101C110.535 11.9847 110.519 12.9602 110.537 13.9358C111.314 13.9246 112.092 13.9332 112.87 13.9305V15.8285C112.089 15.7964 111.308 15.8197 110.528 15.8172C110.531 16.9084 110.528 17.9994 110.529 19.0908C110.541 19.6951 110.496 20.3026 110.567 20.905C110.61 21.2601 110.741 21.6535 111.077 21.8371C111.64 22.1492 112.353 22.013 112.87 21.6703V23.5867C112.196 23.8768 111.443 23.9653 110.714 23.9139C110.022 23.8632 109.306 23.6142 108.855 23.0688C108.333 22.4529 108.199 21.6189 108.188 20.8388C108.183 19.1644 108.189 17.4899 108.186 15.8147C107.035 15.8138 105.884 15.8134 104.734 15.8153C104.733 18.4432 104.733 21.0712 104.733 23.6993H102.375C102.375 21.0716 102.371 18.4453 102.376 15.818C101.829 15.8075 101.282 15.8205 100.735 15.8094C100.737 15.1859 100.739 14.5614 100.733 13.937C101.278 13.9246 101.823 13.9299 102.368 13.9339C102.408 13.1042 102.281 12.2509 102.531 11.4429C102.742 10.7135 103.213 10.0553 103.861 9.64383ZM53.3631 9.78008C53.8386 9.7086 54.3533 9.86958 54.6684 10.2383C55.038 10.642 55.1061 11.2844 54.8322 11.7565C54.5295 12.2884 53.8524 12.5358 53.2622 12.4081C52.6498 12.2991 52.1396 11.7349 52.1669 11.1061C52.1493 10.4441 52.708 9.85407 53.3631 9.77986V9.78008ZM35.2874 10.0695H38.7176C39.7852 12.7561 40.8606 15.4395 41.9297 18.1258C42.2027 18.7978 42.4583 19.4771 42.7445 20.1437C44.1179 16.787 45.5111 13.4388 46.874 10.0773C47.9739 10.0597 49.0741 10.0733 50.1745 10.0708C50.1719 14.6134 50.1732 19.1558 50.1741 23.6984C49.3802 23.6965 48.5869 23.7051 47.7937 23.6938C47.8022 20.3418 47.7931 16.9895 47.7977 13.6366C47.799 13.4859 47.7937 13.3352 47.7831 13.1849C47.7366 13.2549 47.6956 13.3277 47.6596 13.4031C46.2963 16.8342 44.9072 20.2558 43.5521 23.6905C42.9875 23.7108 42.4223 23.6919 41.8569 23.7007C40.4508 20.2697 39.0621 16.8304 37.6631 13.3964C37.6263 13.325 37.5871 13.2556 37.5444 13.1889C37.5156 14.6574 37.54 16.1274 37.5321 17.5963C37.5326 19.6304 37.5309 21.6644 37.5326 23.6984C36.7842 23.7003 36.0356 23.6984 35.2874 23.6993C35.2867 19.1558 35.2861 14.6126 35.2874 10.0695ZM59.8541 13.9215C60.9922 13.6002 62.2199 13.6132 63.3575 13.9318C63.5921 13.9967 63.819 14.0869 64.0304 14.2097C64.017 14.954 64.0304 15.6992 64.023 16.4443C63.2623 15.8685 62.2977 15.5038 61.331 15.6246C60.5632 15.6933 59.8311 16.088 59.372 16.7026C58.7817 17.4645 58.6454 18.4763 58.7472 19.4084C58.8231 20.1378 59.1275 20.8668 59.7001 21.3504C60.2947 21.874 61.1284 22.0595 61.9066 22.0012C62.6757 21.9136 63.4015 21.5908 64.023 21.1404C64.0295 21.8459 64.0196 22.5515 64.0282 23.257C63.0639 23.8257 61.9081 23.9722 60.8043 23.9187C59.6752 23.8594 58.5492 23.4356 57.7318 22.6489C56.8436 21.8006 56.3615 20.5908 56.3044 19.3793C56.2469 18.1193 56.5056 16.8051 57.2373 15.753C57.8503 14.8553 58.8094 14.22 59.8541 13.9215ZM85.6177 13.7729C86.7083 13.5826 87.85 13.7222 88.882 14.1097C88.8835 14.8264 88.882 15.542 88.8827 16.258C88.1616 15.7667 87.2805 15.5024 86.4054 15.533C85.9648 15.5499 85.4802 15.735 85.279 16.1503C85.1191 16.5611 85.23 17.0998 85.6211 17.3459C86.2895 17.7892 87.0874 17.9774 87.7804 18.3744C88.3259 18.6783 88.8552 19.0753 89.1318 19.648C89.6512 20.7201 89.4312 22.1371 88.5178 22.9367C87.6463 23.7439 86.3906 23.9672 85.2359 23.9244C84.4158 23.8718 83.5919 23.7114 82.838 23.379C82.8414 22.6257 82.8333 21.8728 82.8418 21.1198C83.4759 21.5762 84.2074 21.9025 84.9816 22.035C85.5208 22.1218 86.1072 22.126 86.6093 21.887C87.0902 21.6501 87.1765 20.9731 86.8911 20.5589C86.6237 20.2397 86.2313 20.064 85.8614 19.8913C85.1665 19.5817 84.4361 19.3227 83.8258 18.8588C83.3966 18.527 83.0717 18.0598 82.9448 17.5326C82.7561 16.7558 82.8149 15.8803 83.2708 15.2014C83.7915 14.4101 84.696 13.9358 85.6177 13.7729ZM69.304 14.0806C69.9549 13.693 70.7822 13.6605 71.493 13.8976C71.4898 14.6771 71.493 15.4562 71.491 16.2358C71.0259 15.9375 70.4457 15.8094 69.8969 15.8648C69.2272 15.94 68.6967 16.4494 68.422 17.0338C68.1231 17.6521 68.0668 18.3516 68.0856 19.028C68.0856 20.5849 68.0865 22.1421 68.0856 23.6993H65.7605C65.7586 20.4449 65.7632 17.1901 65.7586 13.9358C66.5347 13.9259 67.311 13.9299 68.0871 13.9337C68.0839 14.4927 68.0871 15.0513 68.0852 15.6109C68.3373 15.0029 68.7126 14.4122 69.304 14.0804V14.0806ZM52.3812 13.9337C53.1632 13.9305 53.9461 13.923 54.7279 13.9376C54.7188 17.1916 54.7275 20.4455 54.7241 23.6993H52.3824C52.3805 20.4443 52.3833 17.1893 52.3812 13.9339V13.9337ZM75.8336 13.7534C76.9655 13.6107 78.1593 13.6744 79.21 14.1481C80.1217 14.5556 80.8606 15.3091 81.2699 16.2115C81.7065 17.1715 81.8129 18.2505 81.7389 19.2923C81.6661 20.3091 81.3439 21.3282 80.7019 22.1362C80.0451 22.9944 79.055 23.5758 77.9943 23.7919C77.0877 23.9789 76.1394 23.9781 75.2328 23.7894C74.1483 23.5595 73.1442 22.9359 72.5081 22.0285C71.7616 20.9771 71.5494 19.6402 71.6442 18.3803C71.7083 17.3113 72.0438 16.2339 72.7329 15.3955C73.4875 14.4562 74.645 13.902 75.8336 13.7534ZM76.5369 15.6084C75.9732 15.6394 75.4033 15.8285 74.9853 16.215C74.4089 16.7325 74.1455 17.5035 74.0743 18.253C73.9956 19.0774 74.0525 19.9465 74.4326 20.6979C74.7279 21.2814 75.2709 21.7399 75.9108 21.9065C76.5396 22.0681 77.2239 22.0545 77.8332 21.8227C78.3537 21.6216 78.7664 21.197 78.9919 20.6948C79.3323 19.9496 79.3659 19.1118 79.324 18.3077C79.2656 17.5727 79.055 16.8026 78.5096 16.2716C78.0003 15.7608 77.2457 15.5623 76.5369 15.6084ZM94.6323 13.75C95.8092 13.6056 97.059 13.6838 98.1331 14.2214C99.07 14.6855 99.7962 15.5242 100.159 16.4936C100.443 17.2354 100.542 18.0363 100.526 18.8261C100.528 20.006 100.206 21.2171 99.4588 22.153C98.7592 23.0591 97.6891 23.6479 96.5591 23.8328C95.4543 24.0099 94.2869 23.964 93.237 23.5544C92.1735 23.1398 91.2893 22.2932 90.841 21.2508C90.3742 20.1886 90.3249 18.993 90.4704 17.8579C90.6229 16.7225 91.1418 15.6128 92.026 14.858C92.7505 14.2279 93.6831 13.871 94.6323 13.75ZM95.269 15.6103C94.6164 15.6466 93.9693 15.9251 93.5476 16.4286C93.0851 16.9681 92.8865 17.68 92.8328 18.3738C92.7774 19.0902 92.8328 19.8322 93.1124 20.5019C93.3451 21.0641 93.7868 21.5527 94.3562 21.7916C94.8844 22.017 95.4792 22.057 96.0436 21.9734C96.5697 21.8966 97.0793 21.6476 97.4219 21.2387C97.7617 20.8318 97.941 20.3189 98.0314 19.805C98.1456 19.1149 98.1469 18.4044 98.0119 17.7177C97.8922 17.1323 97.6307 16.5508 97.1584 16.1626C96.6465 15.7168 95.9351 15.5644 95.269 15.6103Z" fill="#282C4B"/>
<path fill-rule="evenodd" clip-rule="evenodd" d="M5.51868 17.4355C9.15383 17.4368 12.789 17.4351 16.4241 17.4368C16.4248 21.0389 16.4241 24.6404 16.4241 28.2425H5.51868V17.4355Z" fill="#00ADEF"/>
<path fill-rule="evenodd" clip-rule="evenodd" d="M17.5381 17.4366C21.1726 17.4353 24.8078 17.4359 28.4429 17.4359V28.2423H17.5375C17.5381 24.6402 17.5368 21.0381 17.5381 17.4366Z" fill="#FBBC09"/>
</svg>
