<svg width="141" height="57" viewBox="0 0 141 57" fill="none" xmlns="http://www.w3.org/2000/svg">
<g clip-path="url(#clip0_5_26254)">
<path d="M126.742 36.1278C127.208 36.1278 127.483 36.0517 127.656 35.8979C127.79 35.7575 127.858 35.4314 127.858 34.9006V24.0242C127.858 23.4677 127.797 23.0984 127.681 22.9142C127.528 22.6807 127.202 22.564 126.709 22.564H126.332V21.7791L130.707 21.4401V34.9063C130.707 35.5975 130.892 35.9874 131.264 36.0707C131.41 36.1088 131.629 36.1278 131.91 36.1278V36.9729H126.742V36.1278ZM119.878 32.2131C120.28 31.8711 121.003 31.5995 122.047 31.3938V32.9425C122.047 33.8189 121.912 34.484 121.65 34.9381C121.312 35.5461 120.87 35.8465 120.32 35.8465C119.993 35.8465 119.718 35.7066 119.495 35.4185C119.27 35.13 119.156 34.7144 119.156 34.1646C119.156 33.2686 119.399 32.6226 119.878 32.2131ZM118.02 28.0732C118.106 27.8443 118.331 27.6252 118.695 27.4174C119.115 27.1811 119.589 27.0577 120.071 27.0594C121.388 27.0594 122.047 27.6622 122.047 28.8709V30.5338C120.096 30.9139 118.701 31.3526 117.851 31.8485C116.745 32.4878 116.188 33.3838 116.188 34.5354C116.188 35.2133 116.396 35.8084 116.815 36.3135C117.362 36.9667 118.172 37.2918 119.247 37.2918C119.858 37.2918 120.442 37.119 120.999 36.7672C121.517 36.4467 121.907 36.0378 122.17 35.5384V36.0502C122.185 36.4853 122.185 36.7985 122.17 36.9714H125.952V36.1268H125.808C125.201 36.1268 124.897 35.7102 124.897 34.8728V29.8271C124.897 27.3922 123.518 26.1732 120.769 26.1732C119.656 26.1732 118.722 26.4082 117.964 26.8783C117.206 27.3469 116.828 27.9605 116.828 28.7238C116.828 29.2495 117.001 29.6656 117.353 29.968C117.647 30.2197 118.022 30.3555 118.409 30.3502C118.853 30.3502 119.221 30.2108 119.515 29.9325C119.812 29.6573 119.962 29.3462 119.962 29.0057C119.962 28.1616 119.511 27.7378 118.62 27.7378C118.281 27.7378 118.006 27.8463 117.8 28.0608L118.021 28.1467C118.024 28.0989 118.023 28.0732 118.02 28.0732ZM44.7979 30.4659C46.522 30.4659 47.8999 30.1285 48.9363 29.4583C50.107 28.7089 50.6892 27.602 50.6892 26.132C50.6892 24.6049 50.0977 23.4677 48.9142 22.7178C47.9071 22.0764 46.5446 21.7549 44.8236 21.7549H39.0922V22.5851C39.7732 22.5851 40.1955 22.6344 40.3585 22.7291C40.6368 22.886 40.7772 23.3129 40.7772 24.0134V34.8296C40.7772 35.3599 40.662 35.7189 40.4285 35.9041C40.2366 36.0512 39.8787 36.1217 39.3504 36.1217H39.0917V36.9667H45.9109V36.1217H45.2011C44.6544 36.1217 44.283 36.0383 44.085 35.8593C43.887 35.6865 43.7877 35.3476 43.7877 34.8296V30.4659H44.7979ZM47.561 26.1433C47.561 28.3823 46.6464 29.5015 44.8231 29.5015H43.8638V22.6396H44.8231C46.6464 22.6396 47.561 23.8087 47.561 26.1433ZM55.0288 28.5052C55.4253 26.9493 56.2663 26.1706 57.5583 26.1706C58.0315 26.1706 58.4091 26.2987 58.694 26.5574C58.9784 26.8161 59.1225 27.1571 59.1225 27.584C59.1248 27.9482 58.9965 28.3011 58.7609 28.5788C58.4857 28.8987 58.1406 29.0612 57.7245 29.0612C57.3279 29.0612 57.0116 28.9383 56.7781 28.6955C56.5543 28.4826 56.4551 28.2208 56.4741 27.9101C56.4741 27.8813 56.49 27.8077 56.5157 27.691C56.1254 28.1822 55.8188 29.0232 55.5884 30.2067C55.4027 31.1551 55.307 32.0249 55.307 32.8088V34.9001C55.307 35.3923 55.3646 35.7122 55.4732 35.8593C55.6074 36.0383 55.9721 36.1217 56.5605 36.1217H56.9154V36.9667H51.1784V36.1217H51.3928C51.7863 36.1217 52.0708 36.0512 52.2436 35.9108C52.4159 35.776 52.4992 35.4309 52.4992 34.9001V30.3394C52.4992 28.7675 52.4575 27.8926 52.3711 27.7183C52.2497 27.4354 52.0131 27.2944 51.6613 27.2944H51.361V26.4519H54.9557L55.0288 28.5052ZM66.9354 35.29C66.8907 35.3162 66.8459 35.3543 66.7883 35.3867L66.9354 35.3038C66.7564 35.7961 66.4267 36.2374 65.9407 36.6149C65.39 37.0553 64.7046 37.2928 63.9995 37.2877C62.7841 37.2877 61.9272 36.9549 61.4283 36.2832C61.0317 35.758 60.8301 34.9335 60.8301 33.8138V29.4089C60.8301 28.4173 60.7853 27.8386 60.6989 27.6725C60.5775 27.4503 60.2926 27.3351 59.8389 27.3351H59.7495V26.454H63.7218V34.1851C63.7218 35.2082 64.1471 35.7205 64.9979 35.7205C65.7015 35.7205 66.1778 35.2344 66.4241 34.2428C66.5327 33.8462 66.5841 33.3025 66.5841 32.6112V29.413C66.5841 28.319 66.5332 27.7162 66.4272 27.5994C66.274 27.4251 65.954 27.334 65.4644 27.334H65.164V26.453H69.501V34.3441C69.501 35.2077 69.5524 35.7128 69.6578 35.8475C69.7921 36.0327 70.0513 36.1222 70.4319 36.1222H70.7035V36.9667H66.8531L66.7888 35.272L66.8531 35.3162L66.8721 35.362L66.9354 35.29ZM75.4653 26.2117C74.0483 26.2117 72.9039 26.8197 72.0336 28.0299C71.2662 29.108 70.8825 30.3394 70.8825 31.7271C70.8825 33.2495 71.1639 34.484 71.7394 35.4376C72.4688 36.6715 73.5972 37.2861 75.13 37.2861C75.9164 37.2861 76.6005 37.0429 77.1833 36.5568C77.6374 36.1669 77.9347 35.738 78.0726 35.2709L77.999 35.3285L77.9126 35.2457L77.9862 36.9667H81.7568V36.134H81.5681C81.1365 36.134 80.8511 36.0188 80.7143 35.7951C80.6057 35.6351 80.5538 35.3347 80.5538 34.9057V21.4355L76.1407 21.7729V22.5599H76.4287C76.9852 22.5599 77.3432 22.7116 77.5073 23.0125C77.6035 23.1899 77.6611 23.5911 77.6801 24.2181C77.6801 25.9098 77.7089 26.8994 77.7665 27.1813C77.3576 26.5332 76.5871 26.2117 75.4653 26.2117ZM77.7033 30.5888V32.7193C77.7033 33.301 77.659 33.787 77.5726 34.1707C77.3103 35.3352 76.7538 35.9231 75.9097 35.9231C74.7262 35.9231 74.1316 34.522 74.1316 31.7271C74.1316 30.4834 74.2026 29.5668 74.3358 28.9733C74.6069 27.8268 75.1475 27.2533 75.954 27.2533C77.119 27.2528 77.7033 28.3658 77.7033 30.5888ZM84.9695 31.4684H91.3695C91.3592 29.8873 91.0048 28.6394 90.3079 27.728C89.5214 26.6901 88.357 26.1706 86.8155 26.1706C85.3984 26.1706 84.2252 26.6808 83.2906 27.6992C82.3504 28.7485 81.8839 30.0853 81.8839 31.708C81.8839 33.3776 82.2933 34.7015 83.1178 35.6809C84.0009 36.7559 85.257 37.2861 86.8849 37.2861C88.1481 37.2861 89.2128 36.8196 90.0764 35.8917C90.832 35.0791 91.2244 34.2093 91.2538 33.2758H90.1891C90.1788 33.966 89.917 34.6131 89.4026 35.2144C88.8199 35.9051 88.1265 36.2441 87.3169 36.2441C86.1628 36.2441 85.4334 35.4191 85.133 33.7685C85.025 33.2177 84.9695 32.4564 84.9695 31.4684ZM86.7841 26.973C87.8899 26.973 88.4464 28.177 88.4464 30.5852H84.9695C84.9798 30.2098 84.9957 29.8975 85.0147 29.6471C85.1613 27.8654 85.7508 26.973 86.7841 26.973ZM95.5306 27.8206C95.7708 27.333 96.1545 26.938 96.6781 26.6309C97.2032 26.3239 97.7844 26.1701 98.4274 26.1701C100.535 26.1701 101.59 27.315 101.59 29.6064V34.395C101.59 34.9253 101.594 35.2447 101.602 35.3543C101.641 35.8655 101.967 36.1211 102.571 36.1211H102.792V36.9657H98.6984V29.2376C98.6984 28.7032 98.6352 28.3195 98.5066 28.086C98.3219 27.7455 97.9732 27.5742 97.4578 27.5742C96.9723 27.5742 96.5819 27.8108 96.2877 28.2876C95.9976 28.766 95.8495 29.4691 95.8495 30.4001V34.3626C95.8495 35.2519 95.8906 35.7503 95.9801 35.8465C96.156 36.0322 96.4692 36.1217 96.9172 36.1217H97.0932V36.9667H91.7589V36.1217H92.0438C92.588 36.1217 92.8786 35.8665 92.9202 35.3543C92.9393 35.2334 92.9491 34.8872 92.9491 34.3178V29.0581C92.9491 28.2408 92.8884 27.7435 92.767 27.5645C92.6492 27.3839 92.3925 27.2944 92.0032 27.2944H91.7604V26.4519H95.5306V27.8206ZM106.76 37.2856C105.011 37.2856 104.131 36.2935 104.131 34.3112V27.333H102.251V26.49H102.54C103.569 26.49 104.439 25.9114 105.156 24.7469C105.769 23.7701 106.083 22.7702 106.102 21.7549H106.985V26.49H108.993V27.333H106.985V34.663C106.985 35.5271 107.252 35.9617 107.785 35.9617C108.255 35.9617 108.56 35.5518 108.696 34.7329C108.744 34.4387 108.77 33.8498 108.77 32.9739H109.755C109.755 34.4202 109.624 35.4103 109.364 35.9288C108.928 36.8376 108.058 37.2856 106.76 37.2856ZM21.6239 16.3069C14.2153 16.3069 9.37526 22.3963 9.37526 28.0649C9.37526 31.3207 10.1684 32.942 11.0381 34.4958C12.1353 31.5481 14.3279 25.6835 14.3279 25.6835C14.3279 25.6835 15.3494 25.1558 15.3494 25.2329L16.822 21.4895L17.7689 20.9983L18.9426 18.5022L21.5092 18.9183L26.7283 21.8285L32.5873 23.4553C31.0776 19.5998 26.805 16.3069 21.6239 16.3069ZM21.5468 41.4112C18.3342 41.4112 14.4035 40.2791 11.5669 36.7996H31.4932C29.1843 39.7869 25.2182 41.4112 21.5468 41.4112ZM25.481 36.1983H23.6644L27.0354 31.9992L27.3743 32.6416L25.481 36.1983ZM27.2591 22.8489L21.4768 19.4861L19.3582 19.107V20.6568L20.9846 22.171L18.7153 21.9792C18.7153 21.9792 18.7889 22.0944 20.6775 24.0978L29.2995 25.5338L30.8092 26.5173L26.8816 26.706L25.2568 32.6416L19.924 36.1983H16.4445L17.6182 33.8894L17.4279 33.8133L14.2888 36.1993H13.5343L16.7469 31.6957C16.8986 30.4119 16.822 30.9787 17.0123 28.6708L16.5211 27.9919L15.2352 32.9811L12.5503 36.1988H11.8688L13.4566 33.9655L15.6873 27.1237L15.1195 27.386L14.1361 30.1089L13.4566 30.486C13.4566 30.486 11.8688 34.343 11.0371 36.2297C9.82891 34.4974 8.46641 32.1524 8.46641 28.0654C8.46641 21.9406 13.7225 15.4773 21.6239 15.4773C29.2229 15.4773 33.2719 21.5265 33.9498 24.6625L27.2591 22.8489ZM31.001 31.6952L29.9008 32.6416L27.7133 36.1983H26.2742L27.7133 33.6585L28.8454 32.7182L30.4764 28.1431L32.2097 28.8611L31.001 31.6952ZM32.024 36.1983H29.1139L31.8708 31.8485L32.7025 29.0118L34.442 29.6177C34.2887 31.8104 33.5722 34.0365 32.024 36.1983ZM28.4678 30.9787L27.5981 31.133L27.8285 29.3909L27.5981 29.0504L27.8285 27.0835L30.0546 27.9919L28.4678 30.9787ZM110.453 36.1278H110.732C111.147 36.1278 111.409 35.9931 111.514 35.738C111.582 35.5523 111.613 35.0914 111.613 34.3497V28.8519C111.613 28.1066 111.542 27.6699 111.388 27.5372C111.242 27.406 111.021 27.3407 110.731 27.3407H110.452V26.4977H114.466V34.3492C114.466 35.2133 114.517 35.7184 114.626 35.865C114.76 36.044 115.01 36.1273 115.387 36.1273H115.676V36.9724H110.453V36.1278ZM111.218 23.5526C111.218 23.0778 111.384 22.6761 111.721 22.3418C111.879 22.1803 112.068 22.0526 112.277 21.9666C112.486 21.8805 112.71 21.8379 112.936 21.8413C113.162 21.838 113.388 21.8807 113.598 21.9667C113.807 22.0527 113.998 22.1803 114.157 22.3418C114.5 22.6761 114.669 23.0773 114.669 23.5526C114.669 24.0288 114.5 24.4367 114.157 24.7772C113.819 25.1223 113.412 25.2936 112.936 25.2936C112.459 25.2936 112.057 25.1223 111.721 24.7772C111.558 24.6179 111.43 24.4271 111.343 24.2166C111.257 24.0061 111.214 23.7801 111.218 23.5526Z" fill="#B7C0CC"/>
</g>
<defs>
<clipPath id="clip0_5_26254">
<rect width="123.495" height="25.9339" fill="white" transform="translate(8.44189 15.4773)"/>
</clipPath>
</defs>
</svg>
