<svg width="141" height="57" viewBox="0 0 141 57" fill="none" xmlns="http://www.w3.org/2000/svg">
<g clip-path="url(#clip0_5_26269)">
<path fill-rule="evenodd" clip-rule="evenodd" d="M53.567 35.083L54.751 32.3317C56.0298 33.288 57.7338 33.7851 59.4149 33.7851C60.6558 33.7851 61.4414 33.3069 61.4414 32.5821C61.4224 30.5557 54.0072 32.1419 53.9502 27.0606C53.9313 24.48 56.2234 22.4915 59.4718 22.4915C61.4034 22.4915 63.3312 22.9697 64.7088 24.0588L63.6006 26.867C62.3407 26.0625 60.7735 25.4895 59.2821 25.4895C58.2688 25.4895 57.6009 25.9676 57.6009 26.5786C57.6199 28.5671 65.092 27.478 65.1679 32.3317C65.1679 34.9691 62.9327 36.8248 59.7223 36.8248C57.3694 36.821 55.2101 36.267 53.567 35.083ZM99.0335 31.3374C98.4415 32.3696 97.3334 33.0755 96.0507 33.0755C94.1571 33.0755 92.6315 31.5461 92.6315 29.6563C92.6315 27.7664 94.1609 26.2371 96.0507 26.2371C97.3296 26.2371 98.4415 26.9429 99.0335 27.9751L102.301 26.1612C101.079 23.9829 98.7261 22.4915 96.0507 22.4915C92.0927 22.4915 88.8822 25.702 88.8822 29.6601C88.8822 33.6181 92.0927 36.8286 96.0507 36.8286C98.7451 36.8286 101.079 35.3562 102.301 33.1589L99.0335 31.3374ZM66.8111 16.5449H70.902V36.5554H66.8111V16.5449ZM103.906 16.5449V36.5554H107.997V30.5519L112.851 36.5554H118.088L111.913 29.4248L117.628 22.7723H112.619L107.993 28.2939V16.5449H103.906Z" fill="#B7C0CC"/>
<path d="M83.0571 31.3752C82.4651 32.3505 81.2431 33.0753 79.8656 33.0753C77.9719 33.0753 76.4464 31.5459 76.4464 29.6561C76.4464 27.7662 77.9757 26.2369 79.8656 26.2369C81.2431 26.2369 82.4651 26.9997 83.0571 27.9939V31.3752ZM83.0571 22.776V24.4002C82.3892 23.2731 80.727 22.4875 78.9852 22.4875C75.3914 22.4875 72.5642 25.6601 72.5642 29.6371C72.5642 33.6142 75.3914 36.8246 78.9852 36.8246C80.7232 36.8246 82.3854 36.0429 83.0571 34.912V36.5362H87.148V22.776H83.0571Z" fill="#B7C0CC"/>
<path fill-rule="evenodd" clip-rule="evenodd" d="M28.2816 31.3564C28.2816 32.7529 27.1545 33.88 25.758 33.88C24.3614 33.88 23.2344 32.7491 23.2344 31.3564C23.2344 29.9636 24.3614 28.8328 25.758 28.8328H28.2816V31.3564ZM29.5415 31.3564C29.5415 29.9598 30.6685 28.8328 32.0651 28.8328C33.4616 28.8328 34.5887 29.9598 34.5887 31.3564V37.6635C34.5887 39.06 33.4616 40.1871 32.0651 40.1871C30.6685 40.1871 29.5415 39.06 29.5415 37.6635V31.3564Z" fill="#B7C0CC"/>
<path fill-rule="evenodd" clip-rule="evenodd" d="M32.0653 21.2279C30.6687 21.2279 29.5417 20.1008 29.5417 18.7043C29.5417 17.3077 30.6687 16.1807 32.0653 16.1807C33.4618 16.1807 34.5889 17.3077 34.5889 18.7043V21.2279H32.0653ZM32.0653 22.5067C33.4618 22.5067 34.5889 23.6338 34.5889 25.0303C34.5889 26.4269 33.4618 27.5539 32.0653 27.5539H25.7392C24.3427 27.5539 23.2156 26.4231 23.2156 25.0303C23.2156 23.6376 24.3427 22.5067 25.7392 22.5067H32.0653Z" fill="#B7C0CC"/>
<path fill-rule="evenodd" clip-rule="evenodd" d="M42.1747 25.0303C42.1747 23.6338 43.3018 22.5067 44.6983 22.5067C46.0948 22.5067 47.2219 23.6338 47.2219 25.0303C47.2219 26.4269 46.0948 27.5539 44.6983 27.5539H42.1747V25.0303ZM40.9148 25.0303C40.9148 26.4269 39.7877 27.5539 38.3912 27.5539C36.9947 27.5539 35.8676 26.4269 35.8676 25.0303V18.7043C35.8676 17.3077 36.9947 16.1807 38.3912 16.1807C39.7877 16.1807 40.9148 17.3077 40.9148 18.7043V25.0303Z" fill="#B7C0CC"/>
<path fill-rule="evenodd" clip-rule="evenodd" d="M38.3912 35.1399C39.7877 35.1399 40.9148 36.267 40.9148 37.6635C40.9148 39.06 39.7877 40.1871 38.3912 40.1871C36.9947 40.1871 35.8676 39.06 35.8676 37.6635V35.1399H38.3912ZM38.3912 33.88C36.9947 33.88 35.8676 32.7529 35.8676 31.3564C35.8676 29.9598 36.9947 28.8328 38.3912 28.8328H44.7173C46.1138 28.8328 47.2409 29.9598 47.2409 31.3564C47.2409 32.7529 46.1138 33.88 44.7173 33.88H38.3912Z" fill="#B7C0CC"/>
</g>
<defs>
<clipPath id="clip0_5_26269">
<rect width="94.8722" height="24.0065" fill="white" transform="translate(23.2156 16.1807)"/>
</clipPath>
</defs>
</svg>
