<svg width="22" height="22" viewBox="0 0 22 22" fill="none" xmlns="http://www.w3.org/2000/svg">
<path opacity="0.4" d="M9.45339 2.15451C10.0602 1.63567 11.0539 1.63567 11.6694 2.15451L13.0589 3.35047C13.3227 3.57911 13.8151 3.76378 14.1669 3.76378H15.6619C16.594 3.76378 17.3591 4.52885 17.3591 5.461V6.95595C17.3591 7.29891 17.5437 7.80016 17.7724 8.06398L18.9683 9.45341C19.4872 10.0602 19.4872 11.0539 18.9683 11.6695L17.7724 13.0589C17.5437 13.3227 17.3591 13.8152 17.3591 14.1669V15.6619C17.3591 16.594 16.594 17.3591 15.6619 17.3591H14.1669C13.8239 17.3591 13.3227 17.5438 13.0589 17.7724L11.6694 18.9684C11.0627 19.4872 10.069 19.4872 9.45339 18.9684L8.06396 17.7724C7.80015 17.5438 7.30769 17.3591 6.95594 17.3591H5.4346C4.50245 17.3591 3.73739 16.594 3.73739 15.6619V14.1581C3.73739 13.8152 3.55272 13.3227 3.33287 13.0589L2.1457 11.6607C1.63566 11.0539 1.63566 10.069 2.1457 9.4622L3.33287 8.06398C3.55272 7.80016 3.73739 7.30771 3.73739 6.96475V5.4522C3.73739 4.52006 4.50245 3.75499 5.4346 3.75499H6.95594C7.2989 3.75499 7.80015 3.57032 8.06396 3.34168L9.45339 2.15451Z" fill="#F07922"/>
<path d="M9.48856 13.3402C9.31269 13.3402 9.1456 13.2698 9.02249 13.1467L6.89438 11.0186C6.63935 10.7636 6.63935 10.3415 6.89438 10.0865C7.1494 9.83144 7.5715 9.83144 7.82652 10.0865L9.48856 11.7485L13.2699 7.96715C13.5249 7.71212 13.947 7.71212 14.2021 7.96715C14.4571 8.22217 14.4571 8.64427 14.2021 8.89929L9.95464 13.1467C9.83152 13.2698 9.66444 13.3402 9.48856 13.3402Z" fill="#F07922"/>
</svg>
