<svg width="141" height="57" viewBox="0 0 141 57" fill="none" xmlns="http://www.w3.org/2000/svg">
<g clip-path="url(#clip0_5_26282)">
<path d="M47.7183 22.1126C46.3603 21.4336 44.9344 21.162 43.3727 21.162C41.8789 21.162 40.5209 21.4336 39.2308 21.9768C37.9407 22.52 36.8543 23.199 35.8358 24.1496C34.8852 25.1002 34.1383 26.1866 33.5951 27.4088C33.0519 28.631 32.7803 29.9211 32.7803 31.2112C32.7803 32.9766 33.1877 34.4704 34.0025 35.8284C34.8173 37.1864 35.9716 38.2049 37.3975 38.9518C38.8234 39.6987 40.3172 40.0381 42.0147 40.0381C43.4406 40.0381 44.7307 39.7666 45.9529 39.2906C47.1751 38.816 48.2615 38.0684 49.2121 37.1857C50.1627 36.303 50.8417 35.2166 51.3849 33.9265C51.9281 32.6364 52.1997 31.3463 52.1997 29.8525C52.1997 27.9513 51.7923 26.3217 50.9775 25.0316C50.1627 23.7422 49.0763 22.7916 47.7183 22.1126ZM45.6813 32.1618C45.3418 32.9766 44.8665 33.5877 44.2554 34.1309C43.6443 34.6062 42.9653 34.8778 42.1505 34.8778C41.1999 34.8778 40.3851 34.5383 39.8419 33.8593C39.2308 33.1803 38.9592 32.3655 38.9592 31.347C38.9592 30.668 39.095 29.9211 39.3666 29.1063C39.6382 28.2915 40.1135 27.6125 40.7246 27.0693C41.3357 26.5261 42.0826 26.2545 43.0332 26.2545C43.9838 26.2545 44.7307 26.594 45.2739 27.2051C45.885 27.8162 46.1566 28.6989 46.1566 29.7853C46.1566 30.6001 46.0208 31.4149 45.6813 32.1618ZM124.92 21.5694C124.445 21.5015 124.038 21.4336 123.562 21.3657C123.087 21.2978 122.613 21.2978 122.204 21.2299C121.729 21.162 121.322 21.162 120.982 21.162C119.149 21.162 118.198 21.2978 116.637 21.5694C115.075 21.841 113.717 22.1805 112.563 22.4521L109.847 39.6308H116.026L118.199 25.7798C118.47 25.7119 119.692 25.5082 120.1 25.5082C120.983 25.5082 121.729 25.5761 122.477 25.7119C123.224 25.8477 123.835 25.9835 124.378 26.0514L126.075 21.8416C125.735 21.7052 125.396 21.6373 124.92 21.5694ZM89.0014 16.8843L78.8843 39.6308H84.52L95.1803 16.8843H89.0014ZM33.9346 21.4336H17.5028L16.8917 25.6434H24.5644L14.7868 39.6308H31.2865L31.8976 35.2852H24.2928L33.9346 21.4336ZM80.1744 23.7422H73.9955L77.9337 39.6308L81.4645 31.4828L80.1744 23.7422ZM105.297 22.0447C104.143 21.4336 102.852 21.162 101.427 21.162C99.5259 21.162 97.8284 21.6373 96.3346 22.5879C94.8408 23.5385 93.6186 24.7607 92.8038 26.3903C91.9211 27.952 91.5137 29.7174 91.5137 31.5507C91.5137 32.7729 91.7853 34.063 92.2613 35.3531C92.8045 36.6432 93.7551 37.7296 95.181 38.6122C96.6069 39.5628 98.576 39.9702 101.02 39.9702C102.175 39.9702 103.126 39.9023 103.941 39.6993C104.688 39.4956 105.706 39.1561 106.996 38.6808L107.879 34.1994C106.521 34.7426 105.367 35.15 104.415 35.4216C103.465 35.6926 102.378 35.829 101.089 35.829C98.6439 35.829 97.3545 34.5389 97.3545 32.0266H108.897C109.033 31.076 109.168 30.1933 109.168 29.3785C109.168 27.5452 108.829 26.0514 108.082 24.7613C107.462 23.5863 106.487 22.6359 105.297 22.0447ZM103.464 28.631V28.9026H97.8963C98.3037 27.8162 98.779 26.9335 99.2543 26.2545C99.7296 25.5755 100.409 25.236 101.291 25.236C102.717 25.236 103.396 26.2545 103.396 28.2915C103.464 28.4952 103.464 28.5631 103.464 28.631ZM68.8351 22.1126C67.4771 21.4336 66.0512 21.162 64.4895 21.162C62.9958 21.162 61.6377 21.4336 60.3476 21.9768C59.0575 22.52 57.9712 23.199 56.9527 24.1496C56.0021 25.1002 55.2552 26.1866 54.712 27.4088C54.1688 28.631 53.8972 29.9211 53.8972 31.2112C53.8972 32.9766 54.3046 34.4704 55.1194 35.8284C55.9342 37.1864 57.0885 38.2049 58.5144 38.9518C59.9403 39.6993 61.4341 40.0388 63.1315 40.0388C64.5574 40.0388 65.8475 39.7672 67.0697 39.2913C68.2919 38.8166 69.3783 38.0691 70.3289 37.1864C71.2789 36.3037 71.9579 35.2173 72.5011 33.9272C73.0449 32.6371 73.3159 31.347 73.3159 29.8532C73.3159 27.952 72.9085 26.3224 72.0937 25.0323C71.2789 23.7422 70.1931 22.7916 68.8351 22.1126ZM66.7981 32.1618C66.4586 32.9766 65.9833 33.5877 65.3722 34.1309C64.7611 34.6062 64.0821 34.8778 63.2673 34.8778C62.3167 34.8778 61.5019 34.5383 60.9587 33.8593C60.3476 33.1803 60.0761 32.3655 60.0761 31.347C60.0761 30.668 60.2119 29.9211 60.4835 29.1063C60.7551 28.2915 61.2304 27.6125 61.8414 27.0693C62.4525 26.5261 63.1994 26.2545 64.2179 26.2545C65.1685 26.2545 65.9154 26.594 66.4586 27.2051C67.0697 27.8162 67.3413 28.6989 67.3413 29.7853C67.2734 30.6001 67.1376 31.4149 66.7981 32.1618Z" fill="#B7C0CC"/>
</g>
<defs>
<clipPath id="clip0_5_26282">
<rect width="111.317" height="23.1539" fill="white" transform="translate(14.7735 16.8843)"/>
</clipPath>
</defs>
</svg>
