<svg width="22" height="22" viewBox="0 0 22 22" fill="none" xmlns="http://www.w3.org/2000/svg">
<path d="M10.5524 1.75867C8.81317 1.75867 7.11297 2.27442 5.66683 3.2407C4.22069 4.20698 3.09356 5.58039 2.42797 7.18726C1.76239 8.79413 1.58824 10.5623 1.92755 12.2681C2.26686 13.974 3.1044 15.5409 4.33424 16.7707C5.56408 18.0006 7.131 18.8381 8.83684 19.1774C10.5427 19.5167 12.3108 19.3426 13.9177 18.677C15.5246 18.0114 16.898 16.8843 17.8643 15.4381C18.8305 13.992 19.3463 12.2918 19.3463 10.5525C19.3463 9.3977 19.1188 8.25418 18.6769 7.18726C18.235 6.12034 17.5872 5.15091 16.7706 4.33433C15.954 3.51774 14.9846 2.86999 13.9177 2.42806C12.8508 1.98613 11.7073 1.75867 10.5524 1.75867ZM14.6943 8.53873L9.41803 13.815C9.33628 13.8975 9.23902 13.9629 9.13185 14.0075C9.02469 14.0522 8.90975 14.0752 8.79366 14.0752C8.67757 14.0752 8.56263 14.0522 8.45547 14.0075C8.34831 13.9629 8.25105 13.8975 8.1693 13.815L6.41053 12.0563C6.32854 11.9743 6.2635 11.8769 6.21912 11.7698C6.17475 11.6627 6.15191 11.5479 6.15191 11.4319C6.15191 11.316 6.17475 11.2011 6.21912 11.094C6.2635 10.9869 6.32854 10.8895 6.41053 10.8075C6.49252 10.7256 6.58986 10.6605 6.69699 10.6161C6.80412 10.5718 6.91894 10.5489 7.03489 10.5489C7.15085 10.5489 7.26567 10.5718 7.3728 10.6161C7.47992 10.6605 7.57726 10.7256 7.65926 10.8075L8.79366 11.9507L13.4456 7.29C13.6112 7.12441 13.8358 7.03138 14.07 7.03138C14.3042 7.03138 14.5287 7.12441 14.6943 7.29C14.8599 7.45559 14.953 7.68018 14.953 7.91436C14.953 8.14855 14.8599 8.37314 14.6943 8.53873Z" fill="#CED1E6"/>
</svg>
